<svg width="187" height="60" viewBox="0 0 187 60" fill="none" xmlns="http://www.w3.org/2000/svg">
<path d="M33.747 30.06L36.357 35.07L35.877 35.34C34.377 32.43 31.347 30.6 28.077 30.6H21.597V51H18.477V30.6H11.997C8.72703 30.6 5.72703 32.43 4.19703 35.34L3.74703 35.07L6.35703 30.06H33.747ZM48.7283 29.43L62.4683 51H58.7783L47.0783 32.61L34.8983 50.4H41.2583V50.91H33.0083V50.4H34.2683L46.7483 32.13L45.0383 29.43H48.7283ZM47.7083 40.83C47.7083 40.83 47.8283 44.79 49.5683 44.79C47.8283 44.79 47.7083 48.75 47.7083 48.75C47.7083 48.75 47.5883 44.79 45.8183 44.79C47.5883 44.79 47.7083 40.83 47.7083 40.83ZM88.2069 30.06H91.3269V51H88.2069V48.48L68.2869 31.56V51H65.1669V30.06H68.2869V30.84L88.2069 47.79V30.06ZM124.274 30.06L126.884 35.07L126.404 35.34C124.904 32.43 121.874 30.6 118.604 30.6H112.124V51H109.004V30.6H102.524C99.2544 30.6 96.2544 32.43 94.7244 35.34L94.2744 35.07L96.8844 30.06H124.274ZM169.785 29.67L183.525 51.21H179.835L168.195 32.97C165.945 36.33 161.445 42.93 156.765 48.72C154.305 51.81 152.355 53.55 149.715 52.92C146.175 52.11 139.395 42.27 136.335 42.27C136.305 42.27 136.425 42.24 136.605 42.21C134.595 42.21 132.975 42.21 132.975 42.21V51.21H129.855V30.3H132.975C134.775 30.3 139.785 30.3 143.895 30.3C148.965 30.3 153.255 31.32 153.255 36.51C153.255 39.96 149.805 42.21 143.835 42.21C143.355 42.21 142.665 42.21 141.885 42.21C143.565 44.13 148.005 49.11 150.345 50.4C152.985 51.84 155.505 49.44 156.465 48.12C158.865 44.73 165.015 36.24 167.805 32.37L166.095 29.67H169.785ZM132.975 41.43C136.365 41.43 144.225 41.43 145.215 41.43C147.675 41.43 150.165 40.68 150.165 35.94C150.165 31.2 145.785 30.9 143.835 30.84C141.375 30.78 135.075 30.81 132.975 30.84V41.43ZM168.735 41.04C168.735 41.04 168.885 45 170.625 45C168.885 45 168.735 48.99 168.735 48.99C168.735 48.99 168.615 45 166.875 45C168.615 45 168.735 41.04 168.735 41.04Z" fill="black"/>
<path d="M36.6491 17V4.4H38.0891L42.6791 11.276L47.2691 4.4H48.7092V17H47.2872V6.794L42.6971 13.544H42.6251L38.0351 6.812V17H36.6491ZM55.5161 17L61.2581 4.31H62.5901L68.3321 17H66.8021L65.3261 13.67H58.4681L56.9741 17H55.5161ZM59.0261 12.392H64.7681L61.9061 5.966L59.0261 12.392ZM79.2107 17.18C77.2787 17.18 75.5627 16.508 74.0627 15.164L74.9447 14.12C75.6167 14.732 76.2887 15.182 76.9607 15.47C77.6447 15.758 78.4127 15.902 79.2647 15.902C80.1047 15.902 80.7827 15.704 81.2987 15.308C81.8147 14.9 82.0727 14.372 82.0727 13.724C82.0727 13.112 81.8447 12.626 81.3887 12.266C80.9327 11.906 80.0687 11.594 78.7967 11.33C77.2967 11.006 76.2167 10.568 75.5567 10.016C74.8967 9.464 74.5667 8.678 74.5667 7.658C74.5667 6.662 74.9567 5.84 75.7367 5.192C76.5167 4.544 77.5067 4.22 78.7067 4.22C80.3747 4.22 81.8507 4.736 83.1347 5.768L82.3067 6.866C81.1907 5.954 79.9787 5.498 78.6707 5.498C77.8667 5.498 77.2187 5.696 76.7267 6.092C76.2347 6.476 75.9887 6.968 75.9887 7.568C75.9887 8.192 76.2227 8.684 76.6907 9.044C77.1707 9.404 78.0767 9.728 79.4087 10.016C80.8367 10.328 81.8747 10.766 82.5227 11.33C83.1827 11.882 83.5127 12.644 83.5127 13.616C83.5127 14.684 83.1107 15.548 82.3067 16.208C81.5027 16.856 80.4707 17.18 79.2107 17.18ZM94.8686 17.18C92.9366 17.18 91.2206 16.508 89.7206 15.164L90.6026 14.12C91.2746 14.732 91.9466 15.182 92.6186 15.47C93.3026 15.758 94.0706 15.902 94.9226 15.902C95.7626 15.902 96.4406 15.704 96.9566 15.308C97.4726 14.9 97.7306 14.372 97.7306 13.724C97.7306 13.112 97.5026 12.626 97.0466 12.266C96.5906 11.906 95.7266 11.594 94.4546 11.33C92.9546 11.006 91.8746 10.568 91.2146 10.016C90.5546 9.464 90.2246 8.678 90.2246 7.658C90.2246 6.662 90.6146 5.84 91.3946 5.192C92.1746 4.544 93.1646 4.22 94.3646 4.22C96.0326 4.22 97.5086 4.736 98.7926 5.768L97.9646 6.866C96.8486 5.954 95.6366 5.498 94.3286 5.498C93.5246 5.498 92.8766 5.696 92.3846 6.092C91.8926 6.476 91.6466 6.968 91.6466 7.568C91.6466 8.192 91.8806 8.684 92.3486 9.044C92.8286 9.404 93.7346 9.728 95.0666 10.016C96.4946 10.328 97.5326 10.766 98.1806 11.33C98.8406 11.882 99.1706 12.644 99.1706 13.616C99.1706 14.684 98.7686 15.548 97.9646 16.208C97.1606 16.856 96.1286 17.18 94.8686 17.18ZM105.039 17L110.781 4.31H112.113L117.855 17H116.325L114.849 13.67H107.991L106.497 17H105.039ZM108.549 12.392H114.291L111.429 5.966L108.549 12.392ZM134.829 15.29C133.389 16.574 131.703 17.216 129.771 17.216C127.839 17.216 126.285 16.598 125.109 15.362C123.945 14.114 123.363 12.56 123.363 10.7C123.363 8.924 123.957 7.394 125.145 6.11C126.333 4.826 127.845 4.184 129.681 4.184C130.689 4.184 131.553 4.322 132.273 4.598C133.005 4.874 133.707 5.294 134.379 5.858L133.461 6.938C132.357 5.978 131.079 5.498 129.627 5.498C128.247 5.498 127.101 6.008 126.189 7.028C125.289 8.036 124.839 9.26 124.839 10.7C124.839 12.224 125.289 13.478 126.189 14.462C127.101 15.446 128.313 15.938 129.825 15.938C131.217 15.938 132.429 15.518 133.461 14.678V11.546H129.627V10.268H134.829V15.29ZM142.356 17V4.4H151.464V5.696H143.778V9.998H150.654V11.294H143.778V15.704H151.554V17H142.356Z" fill="black"/>
<path d="M164.64 6C164.64 6 164.76 9.96 166.5 9.96C164.76 9.96 164.64 13.92 164.64 13.92C164.64 13.92 164.52 9.96 162.75 9.96C164.52 9.96 164.64 6 164.64 6Z" fill="black"/>
<path d="M22.89 6C22.89 6 23.01 9.96 24.75 9.96C23.01 9.96 22.89 13.92 22.89 13.92C22.89 13.92 22.77 9.96 21 9.96C22.77 9.96 22.89 6 22.89 6Z" fill="black"/>
</svg>
